<?xml version="1.0"?>
<svg xmlns="http://www.w3.org/2000/svg" width="512" height="512" viewBox="0 0 512 512"><g><path d="M491.27,254.45A7.969,7.969,0,0,0,496,256a8.159,8.159,0,0,0,3.62-.86A8.014,8.014,0,0,0,504,248V200a7.987,7.987,0,0,0-3.27-6.45l-240-176a7.982,7.982,0,0,0-9.46,0l-240,176A7.987,7.987,0,0,0,8,200v48a7.994,7.994,0,0,0,12.73,6.45L56,228.59V480H16a8,8,0,0,0,0,16H496a8,8,0,0,0,0-16H456V228.59ZM440,480H72V216.85L256,81.92,440,216.85ZM260.73,65.55a7.992,7.992,0,0,0-9.46,0L24,232.21V204.05L256,33.92,488,204.05v28.16Z"/><path d="M256,159c-83.81,0-152,68.19-152,152s68.19,152,152,152,152-68.19,152-152S339.81,159,256,159Zm0,288c-74.99,0-136-61.01-136-136s61.01-136,136-136,136,61.01,136,136S330.99,447,256,447Z"/><path d="M352,248H304V232a8,8,0,0,0-8-8H216a8,8,0,0,0-8,8v16H160a8,8,0,0,0-8,8v72a8,8,0,0,0,8,8v48a8,8,0,0,0,8,8H344a8,8,0,0,0,8-8V336a8,8,0,0,0,8-8V256A8,8,0,0,0,352,248Zm-128-8h64v8H224ZM336,376H176V336h56v16a8,8,0,0,0,8,8h32a8,8,0,0,0,8-8V336h56Zm-88-32V312h16v32Zm96-24H280V304a8,8,0,0,0-8-8H240a8,8,0,0,0-8,8v16H168V264H344Z"/></g></svg>
